# xmcd
#
# Track frame offsets:
#	150
#	22911
#	43612
#	64794
#	84848
#	108071
#	138502
#	163682
#	180637
#	204755
#
# Disc length: 3059 seconds
#
# Revision: 4
# Processed by: cddbd v1.5.2PL0 Copyright (c) Steve Scherf et al.
# Submitted via: EZCDAudioConverter 8.0.2.1
#
DISCID=720bf10a
DTITLE=Hài Nam, Phi Nhung, Yến Vi - Thuyền Giấy Chiều Mưa
DYEAR=1999
DGENRE=country
TTITLE0=Hài Nam - Thuyền Giấy Chiều Mưa
TTITLE1=Phi Nhung - Chuyện đêm mưa
TTITLE2=Hài Nam, Yến Vi - Lý ngựa tình thương
TTITLE3=Hài Nam - Tơ hồng
TTITLE4=Yến Vi - Hai mùa mưa
TTITLE5=Hài Nam - Ca dao em và tôi
TTITLE6=Hài Nam, Yến Vi - Mưa đêm tỉnh nhỏ
TTITLE7=Yến Vi - Lần đầu nói dối
TTITLE8=Hài Nam - Chuyện tình sông Hương
TTITLE9=Yến Vi - Tình gần tình xa
EXTD=
EXTT0=
EXTT1=
EXTT2=
EXTT3=
EXTT4=
EXTT5=
EXTT6=
EXTT7=
EXTT8=
EXTT9=
PLAYORDER=
